<?xml version="1.0" encoding="UTF-8" standalone="no"?>
<!DOCTYPE svg PUBLIC "-//W3C//DTD SVG 20010904//EN"
              "http://www.w3.org/TR/2001/REC-SVG-20010904/DTD/svg10.dtd">

<svg xmlns="http://www.w3.org/2000/svg"
     width="1.77778in" height="1.77778in"
     viewBox="0 0 128 128">
  <path id="パス"
        fill="none" stroke="black" stroke-width="1"
        d="M 12.53,95.98
           C 23.96,70.00 34.41,57.00 43.88,57.00
             48.30,57.00 50.52,62.77 50.52,74.30
             50.52,74.30 50.52,75.12 50.52,75.12
             50.52,89.04 55.53,96.00 65.56,96.00
             75.31,96.00 84.09,87.82 91.89,71.47
             91.89,71.47 85.05,65.20 85.05,65.20
             79.05,80.40 72.63,88.00 65.77,88.00
             60.96,88.00 58.51,83.38 58.41,74.14
             58.30,66.73 57.80,61.57 56.89,58.67
             55.08,52.89 51.33,50.00 45.66,50.00
             40.63,50.00 35.32,52.63 29.72,57.89
             36.69,43.68 44.50,29.18 53.17,14.38
             53.17,14.38 44.92,10.50 44.92,10.50
             29.52,39.69 16.11,67.02 4.69,92.48
             4.69,92.48 12.53,95.98 12.53,95.98 Z
           M 113.19,92.50
           C 110.47,89.24 107.12,85.78 103.14,82.12
             102.38,81.42 102.00,80.96 102.00,80.75
             102.00,80.56 102.20,80.30 102.61,79.95
             106.50,76.84 109.72,73.49 112.27,69.91
             112.27,69.91 110.14,68.33 110.14,68.33
             107.95,71.80 104.91,75.11 101.03,78.27
             99.68,79.37 99.00,80.21 99.00,80.78
             99.00,81.38 99.53,82.14 100.59,83.08
             104.46,86.52 107.97,90.31 111.14,94.45
             111.14,94.45 113.19,92.50 113.19,92.50 Z
           M 120.19,74.31
           C 119.04,72.69 117.90,71.38 116.77,70.38
             116.77,70.38 115.19,71.55 115.19,71.55
             116.35,72.67 117.43,74.00 118.42,75.52
             118.42,75.52 120.19,74.31 120.19,74.31 Z
           M 117.08,76.41
           C 116.04,74.86 114.96,73.55 113.86,72.50
             113.86,72.50 112.23,73.69 112.23,73.69
             113.40,74.86 114.45,76.19 115.38,77.69
             115.38,77.69 117.08,76.41 117.08,76.41 Z" />
</svg>
